# xmcd
#
# Track frame offsets:
#	150
#	10850
#	22562
#	36220
#	45200
#	57405
#	70182
#	80502
#	89930
#	104477
#	113025
#	125240
#	138245
#	150330
#	160375
#	173477
#
# Disc length: 2473 seconds
#
# Revision: 0
# Processed by: cddbd v1.5.2PL0 Copyright (c) Steve Scherf et al.
# Submitted via: EasyCDDAExtractor 12.0.0.1
#
DISCID=c609a710
DTITLE=Jocelyne - Twistin' The rock Vol 19 Disc 2
DYEAR=1900
DGENRE=Chanson
TTITLE0=Quelqu'un d'autre
TTITLE1=Elle me l'a volé
TTITLE2=J'avais un grand ami
TTITLE3=A la fin tu gagneras
TTITLE4=Chaque fopis que je rêve (Thanks a lot
TTITLE5=Oui je crois à la vie (Let tonight linger on)
TTITLE6=Tu n'as pas de coeur (You don't i need a heart)
TTITLE7=C'est le moment (Don't tell me your troubles)
TTITLE8=Regarde-moi
TTITLE9=Mais ça valais la peine
TTITLE10=Moi je crois à l'amour
TTITLE11=Et je t'ai vu
TTITLE12=Chantons plus fort
TTITLE13=J'ai oublié
TTITLE14=Reviendra-t-il encore
TTITLE15=Allez pleurer sans moi
EXTD=
EXTT0=
EXTT1=
EXTT2=
EXTT3=
EXTT4=
EXTT5=
EXTT6=
EXTT7=
EXTT8=
EXTT9=
EXTT10=
EXTT11=
EXTT12=
EXTT13=
EXTT14=
EXTT15=
PLAYORDER=
